<svg width="161" height="161" viewBox="0 0 161 161" fill="none" xmlns="http://www.w3.org/2000/svg">
<path fill-rule="evenodd" clip-rule="evenodd" d="M140.875 12.075H20.125C15.855 12.075 11.7599 13.7712 8.74061 16.7905C5.72127 19.8099 4.02502 23.905 4.02502 28.175V108.675C4.02502 112.945 5.72127 117.04 8.74061 120.059C11.7599 123.079 15.855 124.775 20.125 124.775H140.875C145.145 124.775 149.24 123.079 152.259 120.059C155.279 117.04 156.975 112.945 156.975 108.675V28.175C156.975 23.905 155.279 19.8099 152.259 16.7905C149.24 13.7712 145.145 12.075 140.875 12.075ZM12.075 28.175C12.075 26.04 12.9231 23.9924 14.4328 22.4827C15.9425 20.9731 17.99 20.125 20.125 20.125H140.875C143.01 20.125 145.058 20.9731 146.567 22.4827C148.077 23.9924 148.925 26.04 148.925 28.175V108.675C148.925 110.81 148.077 112.857 146.567 114.367C145.058 115.877 143.01 116.725 140.875 116.725H20.125C17.99 116.725 15.9425 115.877 14.4328 114.367C12.9231 112.857 12.075 110.81 12.075 108.675V28.175Z" fill="#404040"/>
<path d="M80.5 112.7C78.8988 112.7 77.3631 112.064 76.2309 110.932C75.0986 109.799 74.4625 108.264 74.4625 106.663C74.4625 105.061 75.0986 103.526 76.2309 102.393C77.3631 101.261 78.8988 100.625 80.5 100.625C82.1013 100.625 83.6369 101.261 84.7692 102.393C85.9014 103.526 86.5375 105.061 86.5375 106.663C86.5375 108.264 85.9014 109.799 84.7692 110.932C83.6369 112.064 82.1013 112.7 80.5 112.7Z" fill="#404040"/>
<path fill-rule="evenodd" clip-rule="evenodd" d="M92.575 116.725H68.425C66.29 116.725 64.2425 117.573 62.7328 119.083C61.2231 120.592 60.375 122.64 60.375 124.775V144.9C60.375 147.035 61.2231 149.083 62.7328 150.592C64.2425 152.102 66.29 152.95 68.425 152.95H92.575C94.71 152.95 96.7575 152.102 98.2672 150.592C99.7769 149.083 100.625 147.035 100.625 144.9V124.775C100.625 122.64 99.7769 120.592 98.2672 119.083C96.7575 117.573 94.71 116.725 92.575 116.725ZM68.425 144.9V124.775H92.575V144.9H68.425Z" fill="#404040"/>
<path d="M44.275 152.95C43.2075 152.95 42.1837 152.526 41.4289 151.771C40.6741 151.016 40.25 149.992 40.25 148.925C40.25 147.857 40.6741 146.834 41.4289 146.079C42.1837 145.324 43.2075 144.9 44.275 144.9H116.725C117.792 144.9 118.816 145.324 119.571 146.079C120.326 146.834 120.75 147.857 120.75 148.925C120.75 149.992 120.326 151.016 119.571 151.771C118.816 152.526 117.792 152.95 116.725 152.95H44.275Z" fill="#404040"/>
<path fill-rule="evenodd" clip-rule="evenodd" d="M152.95 96.5999H8.05005V88.5499H152.95V96.5999Z" fill="#404040"/>
</svg>
